<mxfile host="app.diagrams.net" modified="2023-11-15T12:00:47.038Z" agent="Mozilla/5.0 (Windows NT 10.0; Win64; x64) AppleWebKit/537.36 (KHTML, like Gecko) Chrome/119.0.0.0 Safari/537.36" version="22.1.1" etag="KmyLZjl2r2c6pabxR6Zl" type="github">
  <diagram name="PÃ¡gina-1" id="fOsIRvQl88aIjHTA9Lwk">
    <mxGraphModel>
      <root>
        <mxCell id="0" />
        <mxCell id="1" parent="0" />
      </root>
    </mxGraphModel>
  </diagram>
</mxfile>
